<?xml version="1.0" standalone="no"?>
<!DOCTYPE svg PUBLIC "-//W3C//DTD SVG 1.1//EN" "http://www.w3.org/Graphics/SVG/1.1/DTD/svg11.dtd" >
<svg xmlns="http://www.w3.org/2000/svg">
<metadata>
This is a custom SVG webfont generated by Font Squirrel.
</metadata>
<defs>
<font id="webfontiJ7CsAOH" horiz-adv-x="767" >
<font-face units-per-em="2048" ascent="1638" descent="-410" />
<missing-glyph horiz-adv-x="870" />
<glyph unicode=" "  horiz-adv-x="870" />
<glyph unicode="&#x09;" horiz-adv-x="870" />
<glyph unicode="&#xa0;" horiz-adv-x="870" />
<glyph unicode="!" horiz-adv-x="742" d="M665 1822q0 -6 -57 -266l-94 -428q-27 -53 -68 -167l-81 -568q-2 -15 -31 -15q-33 0 -60 68q-24 58 -24 99q0 38 86 292q2 6 2 76q0 29 20 71q25 50 28 70l44 234q40 214 93 453q4 20 30 103l53 42q59 -24 59 -64zM345 128q-10 -53 -29 -137q-99 25 -107 29q-13 9 -43 66 q66 84 96 84q14 0 83 -42z" />
<glyph unicode="&#x22;" horiz-adv-x="648" d="M565 1767q0 -27 -25 -167q-33 -190 -66 -317l-43 -30q-58 45 -58 91q0 21 25 168q24 143 56 316q9 10 53 55q58 -54 58 -116zM246 1765q0 -143 -24 -264q-16 -53 -44 -159h-85q-27 76 -27 120q0 26 20 109q23 91 26 122q-10 18 -34 52q5 8 49 60q36 42 57 42q9 0 16 -3 h16q30 -31 30 -79z" />
<glyph unicode="#" horiz-adv-x="1711" d="M1802 859v-6q0 -21 -15 -45q-17 -28 -40 -35q-48 -13 -236 -18q-169 -3 -236 -40q-88 -49 -88 -291q112 4 211 4q20 0 133 -4q113 -3 131 -3q-8 -23 -38 -49.5t-50 -26.5q-6 0 -35 7q-31 8 -36 8q-87 0 -204 -24q-153 -31 -172 -76l-95 -225q-64 -146 -148 -177 q-43 21 -43 38q0 19 153 367q-13 33 -81 33q-245 0 -359 -57q-29 -15 -49 -97q-19 -76 -28 -118q-45 29 -86 29h-11q0 72 24 171q-51 50 -223 75q-144 20 -163 94q41 42 90 42q13 0 139 -25.5t151 -25.5q13 0 21 3q26 35 56 136q31 101 31 150q0 46 -38 46q-8 0 -55 -6.5 t-55 -6.5q-172 0 -224 55q0 22 19 48q20 26 38 26q12 0 77.5 -6.5t76.5 -6.5q152 0 180 11q62 23 97 137l80 263q29 2 55 25q46 -40 46 -83q0 -10 -51.5 -147t-51.5 -148q0 -19 34 -46l388 1q41 0 115 213l87 258q18 56 72 171h46q15 -17 15 -63q0 -69 -18 -125 q-16 -16 -43 -64q-14 -41 -46 -168q-34 -138 -34 -164q0 -46 58 -46q14 0 90 13.5t90 13.5q19 0 124 -7q106 -8 124 -8zM1121 703q-151 0 -225 6q-8 0 -58 5q-42 5 -55 5q-78 0 -133 -33q-79 -149 -79 -251q0 -26 17 -37h257q173 0 215 72z" />
<glyph unicode="$" horiz-adv-x="1322" d="M1268 1161v1q-2 0 -16 -51q-201 50 -261 50q-18 0 -76.5 -93t-58.5 -119q0 -20 83 -89q107 -87 156 -145q84 -101 84 -204q0 -36 -24.5 -59t-96.5 -55.5t-107 -32.5h-369q-64 -83 -130 -226q-94 -201 -112 -235h-5q-25 0 -46 20q-24 22 -24 48q0 58 64 198l90 201l-35 28 q-221 46 -336 58q-13 51 -15 51v-2q0 64 72 64h-2q0 -4 384 -65q202 293 202 341q0 28 -46 48q-19 7 -68 27q-73 45 -151 127q-95 100 -95 164q0 21 32 55.5t52 34.5q33 0 229 -7t231 -7q24 0 36 14q7 9 86 148l186 329h44q27 -28 29 -48l-205 -435q9 -29 119 -43 q100 -13 100 -91zM816 1157q-8 6 -87 6q-23 0 -109 -3t-109 -3q9 -29 91 -90t113 -61q46 0 101 151zM1074 577q-78 109 -169 178q-31 14 -94 46q-22 -12 -98 -138t-76 -152q0 -30 15 -30h261q23 0 89.5 39t71.5 57z" />
<glyph unicode="%" horiz-adv-x="1862" d="M1830 360q0 -154 -195 -250q-158 -78 -333 -78q-5 0 -29 7q-23 6 -29 6t-25 -13q-18 -13 -26 -13q-15 0 -113 36l-125 44v182q0 23 56 56l75 44q32 27 105 69q221 96 271 96q119 0 226 -39q142 -52 142 -147zM1598 1150q0 -48 -46 -85q-90 -72 -188 -143 q-142 -80 -386 -239q-559 -361 -769 -610q-11 -13 -11 -31q0 -9 2 -18q0 -1 -16 -16l-32 -32q-34 -34 -51 -34q-32 0 -64.5 23t-32.5 48q0 60 222 249l285 240q27 23 126 90l743 507q-14 13 -37 13q-345 0 -429 -43l-151 -78q-57 -21 -164 -21q-118 0 -195 80q-2 22 -2 41 q0 277 258 277q187 0 251 -57q13 -38 66 -110q94 0 342 24l156 15q123 0 123 -90zM801 1207q-46 46 -83 46q-10 0 -61.5 -15.5t-60.5 -15.5q2 -1 62 -28q40 -18 60 -18q21 0 83 31zM1726 349q-91 68 -176 68q-330 0 -478 -200q92 -70 199 -70q140 0 263 42q158 54 192 160z " />
<glyph unicode="&#x26;" horiz-adv-x="1402" d="M1298 593q0 -36 -143 -153q-162 -134 -177 -154q29 -54 128 -100v-57q-15 -17 -64 -17q-36 0 -103 46q-64 41 -64 44q3 0 3 -1q0 -10 -198 -108q-221 -109 -318 -109q-284 0 -284 284q0 125 85 231q30 36 183 166q150 128 185 175q-21 97 -21 199q0 217 86 381 q38 73 189 174q149 99 225 99q251 0 251 -224q0 -161 -95 -297q-64 -91 -221 -227l-188 -159q-16 -1 -33 -3q-28 -5 -28 -22v-37l178 -331q-2 0 -3 -2q0 -9 21 -9h3q14 1 170 122l188 146h45v-57zM1146 1475q0 90 -97 90q-186 0 -314 -171q-118 -157 -118 -349 q0 -57 29 -134h44q165 99 293 239q163 178 163 325zM798 325q-33 32 -100 202q-53 138 -112 138q-77 0 -228 -161q-150 -162 -150 -244q0 -148 167 -148q31 0 116 25t119 44q122 68 188 144z" />
<glyph unicode="'" horiz-adv-x="387" d="M281 1832v-16q0 -133 -17 -268q-25 -215 -82 -215h-68v81q0 11 26 161l41 227q7 42 41 70z" />
<glyph unicode="(" horiz-adv-x="586" d="M956 1848q0 -19 -148 -177l-184 -193q-57 -61 -102 -154q-32 -89 -73 -167l-220 -426q-84 -215 -84 -470q0 -447 180 -667q-4 -31 -31 -59q-234 138 -255 430q-21 277 -21 340q0 17 10 60l11 52q73 567 497 1154q116 160 334 314h56q30 -17 30 -37z" />
<glyph unicode=")" horiz-adv-x="657" d="M578 798q0 -338 -178 -738q-28 -64 -352 -682q-29 1 -138 1v59q92 107 125 167q16 32 169 275q102 165 138 290q108 389 108 569q0 412 -109 777q-54 128 -110 285v81h68q34 0 76 -130q24 -43 57 -108q61 -120 102 -344q44 -240 44 -502z" />
<glyph unicode="*" horiz-adv-x="855" d="M810 1739q-22 -7 -143 -84q-45 -40 -140 -118l232 -191q-34 -59 -63 -59q-18 0 -97 38q-81 38 -83 38q-55 0 -55 -68q0 -18 6 -55q-17 -41 -59 -121q-49 25 -61 105q-2 23 -13 128q-2 5 -7 6q-4 -2 -9 -8q-13 6 -25 6q-48 0 -85 -65q-10 -16 -61 -103q-28 -18 -37 -18 q-20 0 -45.5 28t-25.5 51q0 16 103 137t103 151q0 14 -63 59l-78 54v69q26 29 45 29q24 0 217 -128q28 42 56 127q29 89 45 131h44q38 -18 38 -100q0 -38 24 -54q138 102 174 102q24 0 63 -42v-45z" />
<glyph unicode="+" horiz-adv-x="942" d="M921 511q-76 -56 -148 -56q-14 0 -90.5 7t-88.5 7q-113 0 -120 -102q-10 -153 -70 -218h-72q0 16 4 111q4 94 4 110q0 56 -6 100q-97 -27 -165 -27q-70 0 -134 43q22 62 81 74q11 2 116 2q101 0 146 70q15 24 49 181q23 104 107 117l14 -28q13 -28 13 -42t-25.5 -96 t-25.5 -96q0 -71 90 -71q6 0 39 6.5t39 6.5q42 0 93 -6l94 -12q23 -13 56 -81z" />
<glyph unicode="," horiz-adv-x="460" d="M321 53q0 -118 -59 -191q-65 -58 -189 -158q-38 -8 -117 -54h-72q-6 23 -14 74q153 94 195 129q97 80 122 182q4 58 22 173h41q71 0 71 -155z" />
<glyph unicode="-" d="M709 412q0 -57 -52 -57q-14 0 -90 12t-90 12q-127 0 -219 -15q-98 -17 -123 -23q-8 -1 -8 -2t3 -1q-18 0 -44 31t-26 52q0 54 58 66q101 20 261 20q60 0 117 4q5 1 61 18q55 18 68 18q30 0 58 -54q26 -49 26 -81z" />
<glyph unicode="." horiz-adv-x="421" d="M338 121q0 -30 -60 -76q-59 -46 -93 -46q-33 0 -108 38q9 42 37 113q18 23 65 53t67 30q32 0 62 -37.5t30 -74.5z" />
<glyph unicode="/" horiz-adv-x="1521" d="M1498 1807q0 -69 -272 -407q-24 -28 -85 -111l-123 -192q-103 -122 -224 -284q-43 -57 -462 -748l-150 -241q-26 -41 -77 -41q-35 0 -70 16q-1 2 -8 12t-7 23q0 9 26.5 63.5t29.5 69.5q104 90 200 246l166 274q25 55 85 165q3 8 179 226q124 155 128 238q85 69 203 232 q105 147 166 266q-10 9 -28 9q-4 0 -9 -1q4 12 91 90q59 53 196 166q45 -19 45 -71z" />
<glyph unicode="0" horiz-adv-x="1633" d="M1530 911q0 -112 -15 -166q-76 -277 -409 -527q-298 -223 -559 -223q-186 0 -341 163q-162 169 -162 397q0 129 14 169q3 10 23 51q-11 49 -11 99q0 301 349 530q118 78 314 138t329 60q111 0 273 -70q100 -42 129 -113q66 -164 66 -508zM1452 849l-14 363q-3 74 -78 158 q-87 96 -127 111q-84 31 -188 31q-293 0 -526 -160q-104 -70 -141 -101q-86 -71 -118 -134h38q180 184 332 207q-31 -39 -237 -239q-171 -166 -225 -310q-27 -71 -27 -176q0 -230 141 -370q130 -130 322 -130q51 0 214 60.5t210 97.5q230 177 316 323q26 43 63 133 q45 105 45 134v2z" />
<glyph unicode="1" horiz-adv-x="537" d="M448 1237q0 -78 -22 -184l-103 -486q-79 -394 -161 -558q-20 10 -42 34q-19 22 -19 34v2l259 1266h59q29 -54 29 -108z" />
<glyph unicode="2" horiz-adv-x="1481" d="M1453 1404q0 -105 -116 -228l-186 -192q-373 -387 -882 -811v-5q0 -33 48 -46q65 -17 133 -17q16 0 33 1l597 39h14q63 0 260 -21l18 16l15 -83q-81 -4 -313 -13q-101 -4 -332 -26l-169 -16q-7 0 -45 7t-45 7q-6 0 -35 -13.5t-36 -13.5q-70 0 -183 31q-115 30 -164 63v18 v12q0 42 18 68q31 42 166 146q186 145 434 358q89 76 359 343q225 223 295 380q-44 47 -96 47q-198 0 -575 -169q-265 -118 -265 -126h2h-52q-29 20 -29 43q0 51 97 88q39 12 136 51q488 216 711 216q81 0 135 -43q52 -44 52 -111z" />
<glyph unicode="3" horiz-adv-x="1798" d="M1729 600q0 -40 -104 -114q-76 -54 -144 -87q-300 -141 -926 -291q-174 -42 -441 -163l-42 58q75 68 196 117q149 59 446 137q300 78 443 130q246 89 419 222q-19 55 -162 89q-134 34 -451 69q-230 26 -294 26q-6 0 -22 -7q-17 -6 -23 -6q-121 0 -282 67v58q33 30 55 37 q1 0 55 13q55 13 164 42q139 41 358 153q267 135 267 202q0 59 -96 59q-359 0 -718 -96q-18 -5 -109 -40q-79 -32 -99 -32q-57 0 -57 58q0 81 453 153q370 59 568 59q49 0 128 -49q85 -53 85 -99q0 -107 -281 -256l-376 -200q27 -24 260 -46h-1l110 -16q34 -2 130 -13 q491 -61 491 -234z" />
<glyph unicode="4" horiz-adv-x="1266" d="M1379 1583q0 -14 -27 -46q-31 -36 -44 -68q-23 -51 -58 -170q-39 -127 -69 -193q-18 -24 -44 -77q-24 -82 -24 -170q0 -30 3 -61q-19 -15 -43 -41q-13 -42 -43 -125q-114 -333 -114 -487q0 -10 -7.5 -67t-7.5 -66q-23 -8 -71 -15q-29 27 -29 141q0 27 6 74q3 22 9 74 q10 101 64 269q36 109 36 117v61q-25 24 -64 24q-5 0 -83 -13q-90 -15 -238 -15q-151 0 -235 18q-88 20 -239 85q-4 18 -4 35q0 50 56 136q76 113 84 134q18 49 69 178q59 147 81 147q-2 0 -2 -1t46 -13q0 -3 7 -32q7 -31 7 -38q0 -65 -77 -233q-92 -200 -102 -241 q143 -73 246 -73h333q106 0 146 29q55 40 75 171q5 36 52 144l102 236q52 118 143 218h43q17 -13 17 -46z" />
<glyph unicode="5" horiz-adv-x="1481" d="M1422 538q0 -34 -111 -128q-103 -87 -149 -106q-193 -80 -284 -111l-244 -79q-1 0 -261 -88q-213 -73 -235 -73q-33 0 -103 29q20 53 81 82l233 75q931 301 931 431q0 85 -266 209q-190 89 -419 123q-80 12 -248 44q-12 4 -36 31q-15 17 -63 17h-4q-16 14 -16 51 q0 55 96 256q93 195 139 245q239 -27 458 -27q59 0 82 5q5 0 50 19q39 16 56 16h274q5 -25 13 -75q-274 -79 -404 -79q-29 0 -193.5 13.5t-192.5 13.5q-104 0 -150 -143l-63 -198l36 -31l104 -23l265 -64q256 -64 423 -163q201 -119 201 -272z" />
<glyph unicode="6" horiz-adv-x="1631" d="M1552 433q0 -288 -723 -411q-151 -25 -215 -25q-121 0 -238 27q-106 26 -216 175q-111 150 -111 266q0 18 16 69q18 55 18 61q16 94 44 178q136 409 722 786q79 51 176 70q5 2 189 26l29 -32q-2 -22 -27 -43q-223 -36 -497 -261q-244 -202 -384 -421q-45 -69 -111 -229 q-2 -5 -27 -50q-19 -35 -19 -49v-153l22 -24q14 0 24 24q11 53 61 88q71 51 242 104q261 81 551 81q474 0 474 -257zM1475 440q0 72 -161 115q-120 33 -223 33q-219 0 -478 -69q-339 -90 -371 -234q134 -186 404 -186q158 0 465 94q92 27 212 98q152 90 152 149z" />
<glyph unicode="7" horiz-adv-x="1333" d="M1236 1376q0 -144 -237 -461q-297 -399 -442 -614l-162 -246q-27 -41 -78 -68q-21 15 -55 15l-10 15q-5 7 -5 22q0 34 140 227l177 245l285 394q174 237 259 412q-22 35 -81 35q-17 0 -164 -15q-219 -23 -326 -23q-6 0 -44.5 3.5t-45.5 3.5q-13 0 -25 -2q-25 -21 -53 -21 q-3 0 -171 1l-168 1v72q71 44 463 59q164 6 460 29l212 18h8q63 0 63 -102z" />
<glyph unicode="8" horiz-adv-x="1425" d="M237 422q-15 -70 -15 -101q0 -69 46 -108q25 -21 64 -29q23 -3 69 -12q74 -14 126 -14q130 0 268 74l304 168q39 22 90 69q60 55 60 85q0 144 -193 216l-104 39q-43 12 -111 12q-152 0 -389 -86q-27 -10 -70 -76q-9 -12 -35 -32q-12 -11 -37 -49q-21 -29 -53 -93 q-10 -18 -20 -63zM189 573q15 20 35 61q37 70 116 152q11 10 38 21q10 4 33 27l-233 80q-152 79 -152 278q0 69 42 127q20 26 95 97l72 -43q-16 -36 -69 -103q-36 -44 -36 -87q0 -91 116 -159q98 -58 179 -58h69q15 17 79 28q18 4 61 30q48 31 62 38q31 3 88 20q4 1 54 51 q8 9 66 59q31 33 31 86q0 44 -55 89q-50 42 -98 49q-32 5 -66 15q-28 7 -33 7q-20 0 -77 17q-56 17 -72 18h-7q-61 0 -149 -33l-64 -21q-20 -7 -59 -34q4 16 4 41q1 26 -4 62v2q0 24 59 53q74 37 172 37h10q16 0 102 -5q73 -4 144 -4q18 0 29 -15q6 -9 81 -35 q80 -30 103 -48q28 -21 56 -72q28 -50 28 -80q0 -180 -95 -251q-38 -38 -118 -110q32 -13 87 -13h-1q0 -1 74 -10q107 -16 222 -108q137 -110 137 -243q0 -143 -170 -274q-41 -38 -67 -57q-58 -40 -131 -60q-81 -37 -270 -102q-67 -33 -134 -48t-126 -15q-52 0 -98 12 q-119 29 -171 88q-55 61 -55 169q0 96 30 176z" />
<glyph unicode="9" horiz-adv-x="1139" d="M1091 1301q0 -523 -814 -1215q-158 -135 -171 -135h-65l-17 19v88l363 307q212 182 318 364q-12 24 -38 24q-7 0 -16.5 -8t-16.5 -8q-262 0 -424 141q-58 49 -78 77q-30 42 -30 169q0 228 252 367q203 111 421 111q168 0 231 -47q85 -64 85 -254zM974 1324q0 106 -59 136 q-34 17 -140 17q-161 0 -344 -83q-227 -104 -227 -264q0 -125 150 -204q122 -65 242 -65q28 0 71 17q55 20 70 23q25 4 82 30q64 44 109.5 159.5t45.5 233.5z" />
<glyph unicode=":" horiz-adv-x="490" d="M362 645q0 -33 -8 -44q-22 -32 -35 -59q-5 0 -39 -12t-39 -12q-63 0 -63 1q-3 5 -36 35q-23 21 -23 39q0 48 44 90q41 42 89 42q39 0 75 -24q35 -26 35 -56zM299 183q0 -37 -35 -90.5t-65 -53.5q-23 0 -85 26q0 6 -7 49q-6 44 -6 52q0 115 103 115q7 0 40.5 -6.5 t40.5 -6.5q0 -6 7 -42.5t7 -42.5z" />
<glyph unicode=";" horiz-adv-x="529" d="M244 468q-76 0 -76 112q0 44 41.5 79t91.5 35q98 -1 98 -126q0 -100 -155 -100zM289 -118q-24 -36 -52 -56l-59 -46l-77 -63q-36 -7 -115 -54h-58q-4 19 -11 58q250 157 293 330q0 39 3 129q1 30 28 30l80 -1q24 -14 26 -49q1 -13 1 -28q0 -27 -3 -62q-10 -115 -56 -188z " />
<glyph unicode="&#x3c;" horiz-adv-x="886" d="M902 1298q-2 0 -341 -309q-341 -311 -341 -346q0 -30 69 -101l92 -94q79 -108 241 -308q30 -20 87 -66v-71q-48 -27 -96 -27q-57 0 -141 123l-114 174q-52 77 -195 210l-78 75q-32 32 -32 72q0 92 789 758q14 -7 37 -41t23 -49z" />
<glyph unicode="=" horiz-adv-x="1155" d="M1068 678q-17 -46 -172 -46q-49 0 -328 6q-280 6 -328 6q-64 0 -183 29l-29 41q27 83 83 83q25 0 151 -9l378 -29q153 -12 185 -12q5 0 40 19q34 20 44 20q14 0 61 -25l66 -34q9 -18 32 -49zM1119 247q-20 -12 -57 -39l-28 21q-42 8 -371 29q-45 3 -218 28 q-134 19 -219 19q-143 0 -184 -32v110q83 43 185 43q48 0 258 -11q279 -14 436 -33q131 -16 198 -75v-60z" />
<glyph unicode="&#x3e;" horiz-adv-x="870" d="M843 696q0 -39 -124 -133l-162 -121l-249 -266l-146 -154q-19 -20 -19 -64l-18 11h-103q-17 15 -17 57q0 48 32 82q18 19 324 303q276 256 276 277q0 18 -103 122l-123 127q-50 71 -161 211l-118 121q-100 101 -100 114q0 22 26 43q26 22 51 22q56 0 128 -89l104 -133 q102 -126 173 -198q11 -10 178 -172q151 -146 151 -160z" />
<glyph unicode="?" horiz-adv-x="1616" d="M1576 1565q0 -182 -130 -322q-108 -115 -296 -209l-276 -133l-48 -23q-153 -77 -200 -128q-7 -21 -33 -76q-121 -237 -205 -324q-59 43 -59 90q0 37 24.5 131t43.5 135q44 91 154 177q22 17 227 105q670 290 670 577q0 134 -161 134q-239 0 -584 -85q-389 -97 -533 -222 h-58q-12 52 -14 52q-1 0 -1 -2q0 80 309 189q232 82 391 110q138 24 291 55.5t167 31.5q321 0 321 -263zM444 26q-74 -41 -264 -103q-56 49 -56 90q0 31 24 66t47 35q7 0 45 -12t45 -12q34 0 129 37q30 -39 30 -101z" />
<glyph unicode="@" horiz-adv-x="1719" d="M1679 614q0 -124 -147 -231q-128 -92 -266 -113q2 -11 2 -20q0 -93 -131 -132q-23 -7 -208 -35q-16 -2 -121 -28q-79 -18 -114 -18h-80q-226 0 -373 84q-182 104 -182 313q0 141 70 237q52 71 191 163q43 38 143 97q279 108 438 108q15 0 109 -10.5t109 -11.5 q179 -4 356 -114q204 -124 204 -289zM1563 609q0 123 -196 206q-160 69 -305 69q-167 0 -456 -56q-67 -13 -171 -76t-165 -126q-83 -87 -83 -184q0 -144 202 -209q135 -42 320 -42q9 0 99 18q149 30 266 49q-40 52 -106 163q-221 -90 -349 -90q-277 0 -277 174 q0 190 354 242q19 3 143 28q95 19 133 19q29 0 109 -16q81 -16 100 -26q7 -4 48 -41v-8q0 -33 -45 -146q-44 -110 -45 -110v3q2 0 14 -52q46 -12 46 -14q0 -1 -2 -1q25 0 160 55q132 55 164 78q42 29 42 93zM1047 637q-28 7 -65 11q-31 4 -145 4l-69 -11q-108 -17 -160 -37 q-93 -34 -125 -100q44 -43 90 -43q128 0 305 55q44 13 96 48q62 41 73 73z" />
<glyph unicode="A" horiz-adv-x="1550" d="M1460 -22q0 -71 -90 -71q-35 0 -48 5q-334 342 -652 342q-70 0 -294 -56q-70 -17 -124 -121q-13 -24 -70 -168q-14 -12 -64 -36q-32 31 -32 85q0 193 94 400q24 38 70 117l181 397q221 478 419 814l1 -31q47 22 71 119q22 87 66 87q4 3 11 3q29 0 46 -47q3 -12 28 -118 q91 -385 189 -894l60 -312q22 -43 57 -128q16 -53 47 -194q34 -154 34 -193zM1266 152v59q0 40 -57 342l-98 519q-45 244 -143 505q-128 -135 -345 -645l-67 -155q-24 -34 -42 -63.5t-74 -164.5q-59 -141 -59 -160q0 -31 16 -31l281 12q18 1 36 1q146 0 276 -53 q96 -40 276 -166z" />
<glyph unicode="B" horiz-adv-x="1738" d="M1719 433q0 -132 -310 -286l-129 -69q-30 -22 -125 -54q-27 -8 -133 -44l-308 -147q-146 -50 -313 -114q-183 -69 -254 -197q-73 32 -73 76q0 167 398 303l144 51q56 36 303 131q283 108 343 136q192 91 313 200q6 13 17 44q-71 48 -138 69q-13 4 -152 18 q-364 38 -483 38q-5 0 -32 -6.5t-32 -6.5q-161 0 -294 54v41q0 21 17 39q996 526 996 791q0 96 -122 144q-89 35 -205 35q-18 0 -122 -25t-122 -25q-7 0 -20 6q-12 7 -18 7q-20 0 -25 -8q-7 -11 -11 -14q-10 -6 -148 -41q-295 -73 -400 -218q-27 -39 -27 -208q0 -19 8 -137 t8 -138q0 -267 65 -630q3 -16 27 -90q20 -62 20 -77q0 -23 -24 -47.5t-47 -24.5q-50 0 -61 81q-4 24 -13 116q-25 118 -42 228l-4 21q-17 110 -31 805q-2 11 -15 35q-8 -13 -39 -13q-57 0 -57 57q0 64 169 145q76 36 491 199q59 32 141 56q195 57 311 57q155 0 277 -60 q153 -77 153 -217q0 -167 -231 -374q-126 -112 -376 -275q-111 -73 -242 -172q15 -12 154 -12q823 0 823 -253z" />
<glyph unicode="C" horiz-adv-x="1703" d="M1589 92q127 32 182 55l-14 75l-499 -53q-234 -24 -264 -24q-229 0 -346 35q-170 52 -303 187q-154 157 -154 339q0 11 22 90.5t32 105.5q97 243 469 433l192 99q36 34 51 54l154 51q8 4 297 120q26 25 28 56q-28 4 -55 4q-125 0 -261 -60l-244 -114q-355 -165 -524 -302 q-277 -224 -277 -505q0 -185 44 -286q100 -229 461 -432q67 -37 226 -37q82 0 274 12q219 13 249 24l195 54z" />
<glyph unicode="D" horiz-adv-x="1705" d="M1967 1086q0 -141 -97 -241q-74 -78 -202 -156l-217 -133q-132 -83 -245 -142l-339 -182l-136 -74l-40 -44q-116 -28 -373 -222h-56q-30 27 -30 71q0 64 225 184l293 151l180 101q430 234 719 407q67 39 133 127q69 92 69 166q0 14 -55 107q-117 200 -510 309 q-307 85 -617 85q-8 0 -234 -11q-24 -162 -63 -498q-25 -217 -25 -253v-351q0 -22 21 -35q7 -49 7 -96l-2 -88q-9 -16 -37 -16q-55 0 -84 172q-20 114 -20 219q0 109 36 458q39 379 67 418v33q-8 11 -18 11q-77 0 -218 -42q-169 -50 -169 -103q0 -22 30 -39v-48 q-114 57 -114 126q0 133 364 207q254 51 486 51q665 0 1071 -301q57 -41 126 -150q74 -116 74 -178z" />
<glyph unicode="E" horiz-adv-x="1402" d="M1734 1759q-37 -12 -107 -62q-29 4 -66 4q-176 0 -560 -63l-231 -37q-10 0 -73 7q-63 8 -74 8q-54 0 -131 -31q-85 -33 -104 -73q-28 -63 -48 -208q-19 -130 -19 -220q0 -9 22 -70q199 29 249 29h576v-88q-57 -7 -152 -7q-33 0 -145 2l-144 2q-91 0 -231 -56 q-27 -7 -126 -27q-79 -16 -106 -65q-47 -413 -47 -584q35 -43 72 -51l161 -33q77 0 173 9q216 19 504 19q63 0 113 -4l51 -2q31 -8 31 -31v-51q-60 -28 -231 -28q-26 0 -81 -18l-53 -18q-14 0 -86 10q-57 7 -80 7h-8l-17 -1q-58 -4 -265 -31q-122 -16 -136 -16 q-56 0 -168 70q-121 76 -121 131q0 24 25 213q34 247 62 409q-35 25 -35 78q0 6 2 34q2 29 2 34q112 36 125 471q-61 31 -180 105v87q26 39 86 44q88 5 99 10q11 3 46 39q32 34 52 34q7 0 50 -16t53 -16l277 28q100 9 474 38q11 1 76 21.5t72 20.5q16 0 64 -5l58 -7 q85 -4 235 -4z" />
<glyph unicode="F" horiz-adv-x="1433" d="M1710 1661q-107 -43 -134 -43q-6 0 -42 13q-35 13 -41 13q-17 0 -107 6q-90 7 -106 7q-20 0 -243 -30q-255 -33 -462 -65q-78 -12 -171 -59q-13 -7 -46 -23h-6q-20 0 -59 -7q-10 -4 -76 -50q-52 -36 -75 -36t-49 27q-28 25 -28 50q0 78 108 110l372 116q50 16 190 20 q165 5 211 14q36 18 114 43q63 9 157 9h36q91 -1 140 -1h51q25 23 42 23q6 0 31.5 -13t31.5 -13t36 6q29 7 35 7q52 0 68 -49zM52 686q0 15 6 32l36 37q19 14 59 28q28 48 53 193q36 207 53 268q44 161 123 237q26 -12 84 -70q-80 -162 -108 -360q-12 -82 -29 -173l35 -21 l1015 207l88 -55v-46q-55 -28 -258 -45q1 -3 1 -5q0 -17 -31 -17q-6 0 -35.5 6.5t-34.5 6.5q-64 0 -85 2h19q63 0 63 -6q-5 -4 -37 -10q-14 -3 -114 -17l-180 -68l-244 -47q-63 -13 -180 -76q-22 -12 -51 -87q-27 -69 -45 -73q5 -25 5 -55q0 -24 -19.5 -160t-19.5 -161 q0 -81 32 -136q-54 -57 -152 -57q-29 27 -29 64q0 15 13 117l35 280q16 126 16 137v61l-50 21q-34 14 -34 48z" />
<glyph unicode="G" horiz-adv-x="2329" d="M2262 551q0 -186 -470 -350l-130 -47q-41 -40 -121 -55q-453 -82 -691 -82q-23 0 -157 13q-133 12 -156 12q-4 0 -56 28q-52 29 -64 29q-100 69 -285 233q-29 34 -66 158q-5 19 -5 35v24l1 23v-2q0 80 39 155l75 148q2 9 2 25q0 20 -9 39l160 161q112 108 217 189 l227 175q154 118 243 134q16 17 52 43q18 7 51 21q27 16 105 57q198 96 433 96q32 0 77.5 -40t45.5 -70q0 -59 -52 -59q-12 0 -39 17t-34 18q-28 9 -86 9q-7 0 -50 -2q-44 -2 -51 -2q-82 0 -443 -211q-334 -197 -431 -288q-127 -117 -217 -215q-10 -11 -22 -77 q-64 -23 -108 -105q-1 -23 -8 -64q-12 -20 -30 -64q-3 -13 -3 -103q0 -4 -3 -30t-3 -31q0 -49 64 -123q56 -64 107 -92q213 -121 271 -121q8 0 47 4.5t45 4.5q13 0 90.5 -17.5t90.5 -17.5q12 0 87.5 6.5t88.5 6.5q132 0 382 55q106 45 182 70l302 101q214 78 214 184 q0 163 -634 163q-199 0 -281 -42q-28 -15 -65 -87h-44q-44 31 -44 57q3 0 54 130q65 36 201 36q29 0 201 6q172 5 202 5q4 0 35.5 -13.5t42.5 -13.5q5 0 29.5 6.5t29.5 6.5q51 0 169 -43q118 -42 154 -75q41 -36 41 -142z" />
<glyph unicode="H" horiz-adv-x="1701" d="M1717 1434q0 -7 -55 -67q-56 -64 -59 -72q-48 -127 -91 -413q-42 -274 -42 -425q0 -32 -22 -60q-1 -61 -28 -257q-12 -86 -12 -105q0 -7 34 -121q-22 -7 -74 -15q-54 110 -54 156q0 19 18 207q18 178 35 418h-162q-17 0 -136 -20t-139 -20h-62l-62 1q-97 0 -148 -7 q-28 -4 -85 -23q-52 -18 -84 -18q-30 0 -52 16q-28 -18 -82 -31l-85 -21q-36 -32 -36 -105q0 -9 3 -59q4 -51 4 -59q0 -76 -63 -266q-5 0 -30 -1.5t-28 -1.5q-16 0 -30 5q25 152 25 472q0 9 25 126q75 355 123 515q33 60 91 184h60q12 -47 14 -47v4q0 -15 -40 -104 q-42 -97 -48 -120q-69 -258 -69 -349q0 -48 37 -48q46 0 138 19q101 19 145 22q156 9 309 9q21 0 142 -4q120 -5 141 -5q30 0 94 7q60 7 93 9q30 18 50 178q27 212 55 305q55 178 169 242h59q11 -54 13 -54q1 0 1 3z" />
<glyph unicode="I" horiz-adv-x="442" d="M377 1475l-70 -307q-140 -621 -140 -1088v-45q-16 -3 -31 -17q-71 85 -71 287q0 37 26 274q41 354 81 553q49 242 129 409h46q30 -25 30 -66z" />
<glyph unicode="J" horiz-adv-x="1775" d="M1708 803q0 -484 -149 -678q-38 -49 -196 -88q-137 -35 -220 -35q-177 0 -568 147t-520 261v59q31 3 57 29q211 -143 502 -254q325 -124 541 -124q210 0 302.5 91t113.5 321q16 180 16 384q0 36 -7 244q-6 206 -6 242q0 35 33 71q45 -2 58 -46q0 -3 13 -158 q30 -381 30 -466z" />
<glyph unicode="K" horiz-adv-x="1616" d="M1705 101q-24 -46 -59 -46q-17 0 -81 26q-77 31 -90 35q-56 14 -169 25q-136 13 -169 22q-159 39 -391 91q-109 24 -279 116q-208 113 -208 186q0 15 261 240q284 245 301 262q16 25 52 71l163 149q123 113 204 178q126 102 224 148q14 -13 31 -15v-73l-9 -5 q-76 -46 -149 -105q-245 -199 -908 -862q196 -140 541 -208q36 -7 436 -109l188 -46q10 -3 111 -80zM323 1360l-157 -1351q-16 -16 -58 -16q-71 0 -71 51q0 20 31 263l77 525q11 89 42 319q26 181 75 311q62 -13 62 -82q0 -11 -1 -20z" />
<glyph unicode="L" horiz-adv-x="1701" d="M1600 63q-5 -1 -22 -1q-51 0 -216 12q-186 13 -186 14h1l-698 -47q-192 0 -277 16q-55 10 -149 77q87 270 151 526q182 725 265 965l43 19q30 -61 30 -75v-2l-332 -1325q12 -86 190 -86q61 0 177 14q119 14 168 14h7l78 -3h5q28 0 137 5q84 5 142 5q142 0 474 -66z" />
<glyph unicode="M" horiz-adv-x="2402" d="M2501 1791q0 -25 -290 -797q-46 -120 -110 -348q-70 -255 -73 -345q-41 -66 -90 -251q-62 27 -62 77q0 182 299 1109l96 296l-1 45q-211 -131 -349 -320q-63 -88 -166 -200l-177 -194q-100 -118 -272 -339q-154 -195 -178 -223q-139 -156 -210 -156h-84v228q11 69 36 264 l68 527l-19 21l-869 -1209l-48 13v86l1030 1449h48q29 -49 29 -78q0 -13 -27 -127q-25 -108 -50 -231q-16 -88 -57 -472q-23 -212 -23 -243q3 -6 22 -61q95 72 198 204q47 64 175 224q210 261 521 595q259 279 573 553q60 -37 60 -97z" />
<glyph unicode="N" horiz-adv-x="1826" d="M2239 1752q0 -73 -224 -479q-163 -297 -289 -500q-109 -177 -305 -444q-164 -222 -321 -314q-25 13 -40 29q-3 9 -128 542q-77 328 -183 523l-624 -1068q-16 14 -52 14h-6v82q0 13 321 561l369 630h50q104 -186 212 -694q61 -285 126 -414h2q8 0 19 -10q330 329 768 1154 l147 285q14 30 58 114q11 22 56 48q44 -31 44 -59z" />
<glyph unicode="O" horiz-adv-x="2136" d="M2233 982q0 -35 -40 -150q-36 -104 -61 -151q-120 -241 -383 -417q-154 -103 -479.5 -203.5t-506.5 -100.5h-136q-172 0 -357 134q-197 144 -197 308q0 143 107 314q96 152 221 249q53 41 166 164q99 108 173 153q87 52 331 108q238 54 349 54q272 0 508 -100 q305 -130 305 -362zM2156 970q0 80 -47 129q-215 223 -467 223q-5 0 -33.5 -2.5t-32.5 -2.5q-6 0 -36 12t-34 12q-10 0 -64 -9q-53 -8 -62 -8q-101 0 -352 -59l-123 -30q-76 -26 -98 -67l-21 -65q-200 -138 -224 -158q-115 -98 -160 -221q-1 -2 -11 -100q-5 -61 -50 -78 q-36 51 -52 117q-111 -185 -111 -220q0 -106 149 -233t269 -127q4 0 21 2.5t19 2.5q6 0 40.5 -11.5t41.5 -11.5q11 0 182 21q120 15 235 35q28 14 105 43q313 93 542 260q287 209 352 467q20 79 22 79z" />
<glyph unicode="P" horiz-adv-x="1591" d="M1828 1356q0 -11 -25 -78t-32 -80q-83 -136 -313 -236l-573 -238q-128 -34 -244 -74q-95 -31 -276 -146q-15 -111 -25 -241q-13 -174 -34 -362q-31 -42 -78 -42q4 0 4 1q-7 4 -49 13v68q0 96 16 195q0 2 18 51q18 47 18 57q0 57 -21 116q-14 -40 -51 -52q-44 26 -44 90 q0 7 74 108q76 105 88 144q10 29 35 187q37 234 65 342q60 235 142 299l57 -43v-44q-53 -41 -75 -149q-7 -33 -32 -170q-5 -25 -41 -130q-32 -92 -32 -112v-128q9 -9 17 -9q43 0 134 36q109 41 137 49q463 120 714 273q220 133 267 181q56 55 56 149q0 165 -149 276 q-137 103 -307 103q-134 0 -317 -33q-236 -43 -443 -120q-314 -116 -345 -251l-26 -19q-59 51 -59 96q0 64 133 156q109 76 194 101q565 174 844 174q264 0 421 -138q157 -137 157 -370z" />
<glyph unicode="Q" horiz-adv-x="2173" d="M2331 -3q-13 -15 -15 -32l-44 -7q-37 -8 -50 -8q-6 0 -270 148q-266 148 -277 148q-7 0 -244 -101q-339 -143 -538 -143q-290 0 -555 176q-296 198 -296 472q0 338 233 370q190 230 570 343q304 91 670 91q111 0 307 -71q229 -82 229 -167q0 -4 22 -31.5t22 -31.5 q10 -23 27 -108q17 -88 17 -112q0 -124 -107 -311q-97 -170 -201 -268q26 -53 228 -169q216 -125 272 -188zM2049 947q0 164 -115.5 273t-291.5 109h-24q-16 0 -90 17.5t-84 17.5q-176 0 -380 -43q-645 -139 -773 -500q-8 -85 -21 -181q-9 -35 -31 -35q-3 0 -6 1 q-57 54 -57 130q0 5 2 33.5t2 34.5q0 10 -2 20q0 -11 -22 -69.5t-22 -65.5q0 -17 29 -103q56 -170 263.5 -306.5t407.5 -136.5h154q85 0 213 48l208 81l84 29q23 18 28 57l-66 48q-49 35 -49 53q0 32 21 70h48q4 0 104.5 -51.5t108.5 -51.5q105 0 237 210q124 198 124 311z " />
<glyph unicode="R" horiz-adv-x="1790" d="M1811 201q-28 -60 -77 -60q-37 0 -182 37l-388 95q-177 38 -338 77q-77 12 -155 23q-142 26 -189 59q-117 84 -117 121q0 76 80 112l176 44q161 38 219 72q128 74 310 264q198 207 198 336q0 191 -147 246q-80 30 -308 30q-92 0 -164 -18q-43 -13 -132 -38 q-93 -24 -255 -148q-33 -45 -105 -129q-33 26 -33 64q0 108 167 200q97 54 266 113q212 73 333 73q244 0 362 -84q29 -20 87 -130.5t58 -145.5q0 -175 -197 -394q-150 -166 -347 -298q-25 -18 -141 -83l-119 -25q-118 -24 -142 -44q11 -29 143 -56l187 -37q52 -12 186 -46 q182 -48 764 -230zM422 1315q0 -17 -44 -164q-49 -163 -55 -196q-60 -342 -71 -756q-12 -60 -26 -182q-4 -3 -96 -56q-29 207 -29 270q0 23 38 265q52 336 94 527q22 100 77 278q25 28 50 84l62 -12v-58z" />
<glyph unicode="S" horiz-adv-x="1715" d="M1631 544q0 -52 -99 -122q-79 -55 -149 -80q-53 -18 -643 -151q-444 -100 -578 -211q-21 2 -48 26v62q109 84 223 125q126 44 361 100l364 87q83 19 175 48q105 33 166 68q13 7 59 56q-32 57 -104 92q-48 24 -135 50l-250 74q-859 263 -859 496q0 68 44 98q5 4 112 36 q595 174 892 174h34q184 0 255 -82q-13 -15 -15 -32q-171 24 -197 24q-111 0 -378 -51q-244 -48 -470 -107q-94 -26 -149 -68q62 -104 223 -181q24 -11 274 -118l206 -56q686 -190 686 -357z" />
<glyph unicode="T" horiz-adv-x="1790" d="M2418 1439l-1060 -54q-212 -10 -234 -84q-13 -41 -43 -225q-39 -240 -67 -494q-11 -89 -34 -350q-7 -75 -19 -151q-4 -13 -63 -68h-72q16 70 39 323q26 303 59 498l83 478q-48 1 -104 1q-323 0 -622 -22q-11 0 -95.5 -23.5t-99.5 -23.5q-25 0 -56 42v60l55 35 q160 26 336 43l465 47q325 31 653 31h333q24 0 167.5 13t168.5 13q127 0 210 -42v-47z" />
<glyph unicode="U" horiz-adv-x="2152" d="M2070 1251q0 -66 -86 -368q-46 -161 -133 -286q-176 -254 -499 -431q-323 -176 -612 -176q-113 0 -267 86q-140 78 -223 174q-18 20 -72 117q-18 16 -44 52q-7 27 -16 54q-65 199 -65 302q0 141 58 305q69 193 176 244q41 19 66 19q16 0 16 -32q-6 0 -158 -315 q-42 -86 -42 -234q0 -215 168 -422q177 -220 387 -220h54q216 0 478 126q248 119 408 283q103 105 179 255q45 89 95 204q42 132 42 274q0 127 -61 147q-3 10 -3 20q0 74 49 74q6 0 20 -5q85 -33 85 -247z" />
<glyph unicode="V" horiz-adv-x="2018" d="M1969 1803q0 -60 -945 -1386q-95 -134 -163 -219q-118 -150 -180 -191q-24 -14 -112 -14h-24q-116 182 -231 413q-23 44 -132 349q-104 295 -104 336q0 7 7 47q8 40 8 47q25 5 73 13l135 -415q36 -79 94 -218l94 -238q6 -10 60 -95q56 -87 70 -87q67 0 403 494 q242 355 914 1215q33 -23 33 -51z" />
<glyph unicode="W" horiz-adv-x="2672" d="M2961 1705q-24 -26 -33 -90q-179 -223 -516 -719q-328 -480 -522 -714q-98 -120 -204 -235q-21 -22 -69 -22q-6 0 -29 2h-25q-89 178 -182 561q-94 391 -175 565q-56 -78 -402 -628q-2 -16 -8 -47q-17 -50 -121 -185q-112 -144 -144 -144h1q0 -2 -101 -14l-389 1280 q10 31 32 91q107 -89 203 -429l44 -147q3 -46 20 -139q21 -39 57 -122l48 -189q39 -145 78 -145q57 0 346 490q248 422 335 604q16 -16 52 -38q74 -125 141 -405q25 -111 94 -397q53 -217 129 -380h1q17 0 51 40l98 114q91 99 153 180l1018 1318z" />
<glyph unicode="X" horiz-adv-x="1678" d="M1745 1319q-16 -16 -16 -40v-4q-34 3 -52 3q-31 0 -52 -9q-165 -78 -409 -233q-269 -173 -371 -284q102 -123 412 -442l192 -192q29 -2 65 -33v-55q-41 -43 -83 -43q-56 0 -94 45l-176 207q-18 20 -349 332q-76 72 -95 72q-40 0 -92 -49l-79 -75q-105 -74 -239 -267 q-129 -184 -215 -238q-31 27 -31 71q0 18 12 29q18 18 22 25l42 85q41 82 109 172q15 20 197 195q157 151 157 180q0 27 -86 102l-114 97q-60 66 -196 183l-61 39q-42 27 -42 48q0 47 69 84l171 -108q4 -3 84 -81q281 -274 324 -274q16 0 47 17q20 17 154 110 q544 375 685 375q43 0 110 -44z" />
<glyph unicode="Y" horiz-adv-x="1045" d="M1437 1611q0 -36 -131 -140l-167 -134q-17 -13 -99 -97l-227 -322q-179 -254 -363 -602q-40 -75 -54 -123l-41 -144q-23 -77 -80 -122h-67q-30 24 -30 70q0 36 144 324q80 160 245 436q202 339 254 432q-64 -12 -225 -76q-140 -56 -226 -56q-139 0 -206 148 q-52 112 -52 270q0 144 58 200q15 -9 41 -31v-59q0 -413 171 -413q191 0 511 196l484 304h45q13 -64 15 -64v3z" />
<glyph unicode="Z" horiz-adv-x="2167" d="M2336 59q-140 0 -486 14l-239 10l-1183 -105q-37 -3 -59 -3q-121 0 -227 47q-93 40 -93 79q0 110 324 386q14 12 599 474q323 255 323 316q0 70 -233 70q-92 0 -146 -5q-33 -10 -103 -23q-97 -4 -256 -21q-14 -2 -98 -27q-64 -19 -96 -19q-34 0 -57 30q21 46 93 80 q20 5 82 18q365 76 544 76h7q391 0 391 -134q0 -67 -88 -172q-147 -175 -385 -369l-415 -335l-165 -125q-99 -76 -142 -145v-34q76 -48 200 -48q16 0 170 15l331 32q319 31 805 31q510 0 602 -113z" />
<glyph unicode="[" horiz-adv-x="1078" d="M1034 -413q-42 -73 -58 -73q-9 0 -41 6t-42 6q-6 0 -18 -13.5t-20 -13.5q-3 0 -54 17q-50 16 -61 16h-1l28 -4q26 -4 26 -5q-32 0 -124 14q-40 7 -54 7h1q0 -2 -32 -12q-37 -11 -75 -11h-100q-97 -11 -318 -30l75 1101q30 437 30 530v5l-1 205q-1 207 -13 286q-1 7 -1 16 q0 24 13 87q13 69 15 81l26 24q112 0 336 23h5q46 0 127 12q11 4 29 7q20 4 62 4q28 0 64 -2h38q53 0 86 8q26 -21 26 -69q0 -65 -115 -66q-99 -1 -171 -9q-37 -15 -129 -21q-65 -4 -130 -7q-75 -5 -85 -9q-38 -12 -38 -53q0 -5 1 -41q1 -41 1 -77l1 -119v-21 q0 -146 -19 -349q-21 -226 -21 -259q0 -274 -31 -669q-3 -39 -30 -259q-12 -96 -12 -113q0 -97 90 -97q14 0 53.5 4.5t47.5 4.5q93 4 115 4q4 0 42 12.5t48 12.5t51 -10q41 -9 52 -9q5 0 21 7q16 5 23 5q30 0 192 -46z" />
<glyph unicode="\" horiz-adv-x="1028" d="M994 -248q-137 42 -187 157q-27 87 -85 258l-140 324q-23 55 -40 115q-4 17 -13 50q-23 29 -68 101q-3 4 -41 99l-363 957l17 57h46q138 -229 289 -646q165 -455 333 -835l252 -567v-70z" />
<glyph unicode="]" horiz-adv-x="1053" d="M994 1321q0 -15 -37 -207q-15 -81 -25 -238q-13 -185 -23 -238l-44 -232q-2 -75 -9 -166q-30 -441 -77 -707q-167 -73 -270 -73l-104 8q-107 7 -151 7q-104 0 -167 -9q-44 -7 -65 -18l-17 -8h1q0 1 -55 12q-16 32 -16 98v17l41 35q8 3 307 3q6 0 31 -6q23 -7 28 -7 q69 0 169 20q134 26 141 65q26 113 48 314l89 790q4 61 20 233q12 91 42 352q14 129 14 168q0 120 -48 151q-72 49 -252 49q-12 0 -81 -5q-70 -4 -83 -4q-25 0 -172 9q-146 8 -171 8q-5 23 -14 74q11 8 55 35q18 1 111 16q86 15 117 15q10 0 67 -13.5t67 -13.5 q12 0 83.5 13.5t83.5 13.5q20 0 144 -24q120 -24 152 -34q22 -6 70 -62v-441z" />
<glyph unicode="^" horiz-adv-x="966" d="M963 1446q0 -23 -36.5 -56.5t-61.5 -33.5q-6 0 -153 160q-147 161 -155 161q-34 0 -190 -158l-195 -198q-44 -44 -142 -69q-19 17 -19 67q0 37 18 59q17 20 176 165q232 211 337 338h3q21 0 64 -27q46 -28 64 -53t71 -93l119 -134q100 -114 100 -128z" />
<glyph unicode="_" horiz-adv-x="3072" d="M3032 -189q-12 0 -70 -26t-64 -26q-13 0 -60 21q-53 22 -68 25q-51 10 -129 13l-855 32h-10q-61 0 -337 -13q-269 -15 -346 -15q-6 0 -41.5 14t-42.5 14q-9 0 -61 -20t-61 -20q-22 -1 -138 -7q-245 -15 -418 -23l-40 -32q-7 0 -67 -8q-54 -8 -77 -8q-108 0 -108 71 q0 37 31 77q202 33 347 33q7 0 40 -7q33 -6 39 -6q5 0 50 10q11 2 27 3l893 45l1330 -33q5 0 50 20q44 18 52 18q39 0 74 -44q44 -53 60 -61v-47z" />
<glyph unicode="`" horiz-adv-x="739" d="M719 1508q0 -11 -21 -31q-35 -33 -71 -33q-21 0 -82 31l-86 42q-83 42 -186 121q-112 86 -195 109q-44 55 -44 86q0 30 8 37q6 5 39 5q53 0 160 -62q255 -151 468 -292z" />
<glyph unicode="a" horiz-adv-x="1037" d="M999 3q-21 -29 -46 -29q-16 0 -108 96q-92 97 -123 97q0 -2 -218 -84q-223 -83 -284 -83q-50 0 -111 49t-61 92q0 111 243 259q228 140 348 140q50 0 90 -57v-43q-20 -29 -46 -29q-5 0 -34.5 13t-35.5 13q-40 0 -183 -82q-136 -77 -182 -115q-46 -40 -59 -91 q35 -33 83 -33q25 0 241 83q215 84 260 84q66 0 95 -33q7 -8 51 -90q33 -62 80 -112v-45z" />
<glyph unicode="b" horiz-adv-x="1457" d="M1411 417q0 -76 -169 -176q-126 -76 -245 -113q-109 -33 -272 -52q-46 -6 -278 -32q-27 -3 -155 -27q-104 -19 -147 -19q-25 0 -77 30q28 66 69 80q64 21 232 34q104 8 398 39q94 11 304 95q223 89 223 155v4q-6 57 -144 97q-111 32 -204 32q-9 0 -13 -1l-670 -126 q-5 -1 -13 -1q-39 0 -128 29v272q0 128 17 360l43 578q7 98 37 160h58q31 -47 31 -117q0 -12 -1 -23l-70 -1059v-3q0 -20 21 -43q21 -25 43 -25q9 0 182 23l377 49q140 18 154 18q139 0 254 -54q143 -67 143 -184z" />
<glyph unicode="c" horiz-adv-x="1045" d="M1006 142q-59 -36 -121 -49q-98 -20 -285 -49q-123 -20 -148 -20q-126 0 -251 51q-159 64 -159 169q0 119 171 212q249 135 312 135l127 -13h-1q-13 0 -15 -24q-4 -33 -6 -35q-98 -31 -252 -110q-195 -100 -195 -152q0 -97 244 -125q43 -4 56 -4h3l502 76l18 -15v-47z " />
<glyph unicode="d" horiz-adv-x="1314" d="M1241 594q-130 -57 -414 -148q-267 -86 -324 -106q-240 -89 -284 -146q1 -28 23 -40q51 -29 215 -29q57 0 263 44q276 58 506 121q-12 -63 -52 -84q-42 -23 -309 -102q-276 -82 -318 -82q-14 0 -93.5 -6.5t-93.5 -6.5q-82 0 -184 39q-123 47 -123 116q0 88 55 123 q9 5 124 58q241 109 404 143q55 12 142 50q99 45 140 57l114 22q57 12 100 56q-28 355 -28 875q0 296 46 312q38 -17 49 -31q19 -25 23 -92v3q-1 0 -1 -230l1 -673q0 -117 19 -243z" />
<glyph unicode="e" horiz-adv-x="1053" d="M1025 53q-37 -44 -96 -44h-354q-123 0 -274 37q-198 48 -224 121q-29 82 -29 157q0 151 130 232q110 70 268 70q136 0 216 -58.5t80 -159.5q0 -56 -192 -123q-159 -57 -231 -57q-9 0 -16 1q0 -14 -22 -34q12 -20 117 -46q94 -24 134 -24h318q0 -1 120 -18q38 -24 55 -54z M613 452q-56 57 -180 57q-87 0 -161 -34q-96 -44 -96 -119q0 -27 18 -38h64q34 0 184 57t171 77z" />
<glyph unicode="f" horiz-adv-x="1528" d="M1805 1383v1q-2 0 -16 -53q-175 244 -503 244q-110 0 -235 -53q-134 -55 -194 -137q-68 -93 -135 -281q-72 -197 -72 -299q0 -32 13 -132q13 -109 15 -129q44 -35 67 -35q10 0 48 10q39 10 41 10q77 8 338 8q171 0 325 -10q-9 0 -43 -27l3 -28l-371 -22 q-226 -13 -348 -92q30 -106 129 -279v-55q-10 -18 -38 -18q-27 0 -138 181q-113 180 -138 180q-58 0 -166 -22q-33 -8 -132 -44q-98 -37 -114 -37q-55 0 -121 68v4q0 45 42 64q116 54 462 86q20 14 30 30q-14 118 -14 231q0 390 171 647q195 296 567 296q169 0 328 -72 q199 -91 199 -235z" />
<glyph unicode="g" horiz-adv-x="1006" d="M907 -216q0 -210 -101 -416q-116 -232 -317 -350q-112 -67 -449 -67q-54 0 -160 22q-107 23 -163 45q-79 31 -129 79q-34 32 -65 104q-30 71 -30 118q0 135 293 277q204 98 469 169q192 52 502 88l22 11q1 11 1 22q0 9 -19 151q-6 43 -47 146q-47 118 -70 118q3 0 3 -1 q0 -6 -114 -44q-135 -45 -192 -45q-81 0 -140 28q-78 37 -78 106q0 23 7 65l10 53l40 48q47 26 142 59q106 38 143 38h286l15 -61l-44 -38q-28 2 -55 2q-350 0 -440 -138q50 -59 133 -59q33 0 186 77q138 69 138 76q0 1 -1 1q53 0 98 -121q126 -330 126 -563zM792 -240 q0 42 -17 64h-42q-22 -11 -83 -63q-70 -9 -161 -29q-432 -96 -730 -256q-141 -77 -141 -195q0 -142 305 -216q97 -24 195 -24q171 0 273 48q36 31 64 48q19 12 70 49q112 87 194 272q73 165 73 302z" />
<glyph unicode="h" horiz-adv-x="1116" d="M1082 -172l-31 -28q-127 51 -127 170q0 9 2.5 54.5t2.5 52.5q0 134 -146 134h-28q-110 0 -393 -69q-142 -34 -147 -34q-68 0 -160 66l79 858q54 587 167 842q24 -6 74 -15q-27 -91 -76 -408q-47 -295 -57 -412q-21 -233 -42 -495q-17 -219 -17 -251v-14q0 -29 8 -36 q8 -6 44 -6q10 0 47 10l36 10q26 3 310 44q181 26 191 26q4 0 28 1t28 1q30 0 49 -8q91 -36 114 -156q9 -45 9 -205q0 -55 35 -87v-45z" />
<glyph unicode="i" horiz-adv-x="433" d="M364 970l1 -4q0 -39 -82 -95q-24 7 -98 82q30 72 65 72q33 0 114 -55zM270 206q-12 -162 -12 -188q-48 -27 -86 -27q-16 46 -16 114q0 378 94 401q33 -15 36 -51q-1 13 -3 14q1 -11 1 -27q0 -71 -14 -236z" />
<glyph unicode="j" horiz-adv-x="529" d="M373 988q0 -46 -77 -110q-81 33 -81 95q0 36 74 74q84 -25 84 -59zM435 -729q1 -18 1 -34q0 -142 -33 -200q-29 -53 -217 -84q-136 -22 -252 -22q-128 0 -213 74q-81 70 -82 170q0 6 1 13q169 -145 220 -145q372 0 416 90q32 65 32 222q0 44 -2 64l-51 974v8q0 35 17 78 q22 57 53 57q57 0 68 -244q2 -50 5 -289q12 -56 23 -127z" />
<glyph unicode="k" horiz-adv-x="1122" d="M990 18v-6q0 -34 -48 -71q-47 -37 -85 -42h-4q-31 0 -106 60l-105 85l-89 101q-14 -5 -228 -90q-71 -28 -151 -52q-11 -1 -22 -1q-75 0 -83 73q-1 3 -1 9q0 47 28 248l39 283q36 269 52 550q1 10 24 487q3 77 11 140q5 31 48 62q47 -17 56 -76v-12q0 -46 -9 -263 q-7 -133 -62 -765v-77q0 -63 -2 -124q-1 -23 -24 -140q-18 -94 -18 -118v-4l13 -111q38 -4 38 -6h-4q82 36 173 66q235 77 376 145l179 83l41 5q35 -17 43 -108q-29 -20 -167 -77q-120 -50 -151 -96q63 -130 238 -158z" />
<glyph unicode="l" horiz-adv-x="448" d="M327 1710l-57 -1264q-5 -4 -5 -24t5 -55q11 -94 52 -356q-2 -9 -34 -20q-6 -1 -11 -1q-105 0 -136 242q-1 5 -1 20q0 47 5 193q7 188 17 393q3 78 23 290q19 194 19 288q0 287 38 401l15 1h5q34 0 46 -38q9 -25 19 -70z" />
<glyph unicode="m" horiz-adv-x="1616" d="M1570 365q0 -29 -7 -189q-7 -161 -7 -189q-29 -2 -57 -27q-73 59 -73 182q0 13 6 93q7 80 7 94q0 60 -19 95h-35q-44 0 -338 -181l-292 -181q-44 0 -119 56q-2 9 -2 20q0 12 9 84t9 85q0 63 -28 103h-34q-45 0 -438 -359h-58q-26 39 -26 57q0 28 130 111q19 12 228 202 q158 143 245 143q94 0 94 -217q0 -18 -2 -59q-4 -41 -4 -60q37 -8 39 -10q-1 -1 -5 -1q20 0 344 195q24 22 79 57q189 82 259 82q95 0 95 -186z" />
<glyph unicode="n" horiz-adv-x="1041" d="M940 540q0 -21 -21 -239q-18 -181 -44 -394q-2 -16 -32 -16q-39 0 -64 98q-19 75 -19 133q0 22 25.5 158t25.5 157q0 59 -32 59q-41 0 -175 -71q-116 -62 -169 -101q-101 -74 -229 -223l-82 -92q-24 -25 -95 -26v67q0 47 184 207q147 128 308 232q226 147 336 147 q29 0 56 -32t27 -64z" />
<glyph unicode="o" horiz-adv-x="1243" d="M1166 365q0 -107 -45 -183q-41 -69 -291 -136q-223 -60 -339 -60q-136 0 -269 65q-161 80 -161 199q0 53 61 108q54 39 163 147q72 88 264 142q162 46 303 46q38 0 114 -33q76 -35 104 -64q28 -31 62 -111.5t34 -119.5zM1064 373q0 74 -89 141q-82 63 -162 63 q-15 0 -233 -43q-84 -17 -153 -65q-236 -168 -236 -232q0 -54 129 -98q110 -38 179 -38q103 0 289 42q170 38 242 115q34 35 34 115z" />
<glyph unicode="p" horiz-adv-x="1076" d="M1054 450q0 -102 -195 -237q-137 -96 -286 -160q-106 -47 -144 -47h-41l-28 31q21 53 54 79l109 44q401 155 401 303q0 96 -278 96q-137 0 -271 -22q-191 -32 -235 -95q-13 -53 -44 -146q-59 91 -59 148q0 62 33 101q39 47 265 97q203 45 294 45q425 0 425 -237zM398 276 q0 -13 -38 -93q-45 -91 -50 -108q-161 -538 -183 -992q-58 -13 -58 -15h1q-23 0 -46.5 24t-23.5 47q0 278 196 939q27 91 77 181q17 31 93 68q32 -22 32 -51z" />
<glyph unicode="q" horiz-adv-x="1076" d="M1025 138q0 -73 -49 -200l-78 -201q-74 -209 -79 -239l-24 -169l-61 -400l-23 -29h-70q-17 12 -17 44q0 245 89 563q5 35 83 298q3 11 49 134q38 100 38 122q0 45 -38 45q-27 0 -289 -56q-160 -34 -360 -34q-57 0 -115 45q-60 45 -60 90q0 35 29 94t56 74q55 32 228 65 q158 30 241 30q77 0 128 -41q-5 -28 -14 -84q-29 -16 -83 -16q-10 0 -64 19t-64 19q-40 0 -160 -51q-122 -53 -155 -84q21 -47 81 -47q3 0 26.5 1.5t28.5 1.5q10 0 168 28l345 64q129 23 141 23q72 0 72 -109z" />
<glyph unicode="r" horiz-adv-x="1001" d="M935 518l-32 -29q-105 33 -163 33h-8q-75 -4 -110 -4h-80q-2 0 -70 -22q-43 -3 -127 -22q-134 -59 -160 -208q-11 -59 -11 -104q0 -12 1 -24q8 -111 8 -131q-23 -6 -74 -12q-28 54 -28 75q0 11 5 57q3 46 3 62q0 84 74 289q25 52 72 85q102 70 377 70q276 -1 323 -73v-42 z" />
<glyph unicode="s" horiz-adv-x="775" d="M725 241q0 -85 -55 -113q-41 -19 -200 -68q-165 -51 -202 -51q-6 0 -16 6.5t-15 6.5q-22 0 -85 -64q-44 33 -44 51q0 112 337 180q21 5 78 15q16 11 49 44q-32 53 -99 79q-67 23 -242 91q-174 67 -174 151q0 109 218 109q83 0 213 -19q152 -22 198 -50l-16 -26l-371 -19 q-3 -4 -24 -20l267 -119q183 -81 183 -184z" />
<glyph unicode="t" horiz-adv-x="1085" d="M1098 676q-229 0 -394 -76q-40 -18 -49 -51q-2 -47 -16 -171q-5 -46 -5 -95q0 -10 4.5 -66.5t4.5 -65.5q0 -79 -39 -131q-8 2 -44 17q-39 101 -39 235q0 33 11 132q10 97 10 131q0 30 -21 45q-18 -7 -128 -18q-19 -4 -114 -18l-62 -7q-10 -1 -49 -32q-10 -9 -10 -39v-7 h-44q-15 0 -62.5 41.5t-47.5 53.5q0 62 220 92q269 37 321 65q30 18 66 395q18 186 74 477l16 77q4 11 70 43l17 -123q-5 -25 -19 -105l-42 -257q-7 -32 -16 -123l-17 -357l404 4v-66z" />
<glyph unicode="u" horiz-adv-x="1021" d="M1054 564q0 -42 -152 -210q-134 -148 -199 -196l-141 -104q-45 -32 -138 -63q-95 -31 -149 -31q-102 0 -169 131q-55 107 -55 223q0 96 40 197q15 0 31 14q19 -11 52 -42q-10 -79 -10 -138q0 -242 157 -242q152 0 365 189q34 30 320 299h16q32 0 32 -27z" />
<glyph unicode="v" horiz-adv-x="1148" d="M1162 668q-75 -34 -182 -95q-9 -5 -138 -136q-446 -452 -546 -452q-23 0 -86 105q-58 95 -71 130l-56 161q-30 83 -88 148v84q52 12 52 14q0 1 -3 1q21 0 151.5 -231t157.5 -231q34 0 224 181q214 205 242 224q131 92 261 173h66l16 -15v-61z" />
<glyph unicode="w" horiz-adv-x="1639" d="M1612 468q-106 -87 -206 -195q-310 -335 -418 -335q-87 0 -194 157l-154 228q-44 -7 -159 -160q-108 -146 -198 -146l-28 15q-31 57 -117 251q-94 210 -94 239q0 51 60 84q60 -72 118 -200q87 -189 100 -212h49q20 37 94 114q26 40 77 111q59 84 100 84q38 0 64 -42 l136 -215q108 -168 159 -168q38 0 284 218q247 218 271 218h56v-46z" />
<glyph unicode="x" horiz-adv-x="1164" d="M1113 169q0 -77 -95 -77q-36 0 -260 161t-236 161q-152 0 -331 -293q-16 -25 -19 -62q-3 -48 -7 -63q-12 -46 -71 -70q-2 21 -20 83q-15 54 -15 83q0 74 82 178q42 52 265 253q-48 58 -138 98l-154 68q-17 45 -17 59q0 64 59 64q5 0 184 -96q177 -97 187 -97q7 0 215 91 t249 91q45 0 122 -57v-44q-6 -2 -108 -13q-19 -2 -232 -59q-57 -15 -123 -105q101 -122 334 -269q120 -76 129 -85z" />
<glyph unicode="y" horiz-adv-x="911" d="M875 406q0 -11 -13 -57q-14 -48 -14 -53v-7q0 -26 -4 -72q-50 -118 -131 -356q-27 -29 -106 -198q2 1 2 2v-1q0 -3 -57 -157q-31 -83 -85 -214q-7 -34 -22 -115q-2 -14 -26 -74q-20 -49 -20 -74q0 -9 4 -16q-19 -32 -71 -84h-44q-30 56 -30 82q0 99 132 438 q52 134 128 309q25 45 81 166q19 59 40 104q19 29 65 162q-3 3 -3 10q0 10 5 26q2 8 2 13q0 10 -7 10q-9 0 -120 -45t-118 -45q-21 0 -101.5 -13t-91.5 -13q-81 0 -147 131q-58 115 -58 210q0 28 29 83h58q74 -310 208 -310q113 0 272 117l178 131q65 -23 65 -90z" />
<glyph unicode="z" horiz-adv-x="1322" d="M1315 125q-61 -26 -121 -46q-48 -16 -185 -29l-187 -17q-23 -10 -90 -31q-166 -42 -354 -42q-61 0 -158 21q-115 24 -137 60v84l296 227q169 130 268 259q-15 44 -48 44h-3l-19 -1q-13 -1 -176 -39t-185 -38q-16 0 -82 29q0 4 -2.5 25.5t-2.5 25.5q0 21 7 34l596 104 q69 -18 69 -109q0 -122 -207 -310q-15 -14 -306 -268q17 -20 55 -20h28h-1q0 2 324 30q157 13 397 36q2 0 41 12t49 12q70 0 134 -53z" />
<glyph unicode="{" horiz-adv-x="863" d="M909 1796l-4 -7l-12 -9l-274 9h-6q-68 0 -102 -46q-7 -18 -50 -108q4 -24 8 -70q17 15 17 37v6l-23 -71q10 -60 40 -190q15 -33 37 -106q33 -171 33 -227q0 -15 -13 -88.5t-16 -78.5q-15 -28 -59 -64q-51 -40 -66 -58q53 -92 95 -131l30 -23q16 -18 16 -55 q0 -133 -35 -212q-9 -58 -40 -169l-70 -161q-38 -90 -38 -169q0 -127 84 -175q17 -10 100 -26t114 -16q4 0 35.5 2t37.5 2q4 0 17 -2q16 -13 45 -23l2 -17q-7 -15 -11 -31l-51 -24q-47 -22 -100 -22q-67 0 -246 58q-16 19 -35 30q-78 48 -106 81q-41 47 -41 125q0 61 24 173 q17 79 89 227l5 19q36 94 85 297q-55 114 -152 125q-23 0 -69 7l-32 -4q2 -23 22 -60l-45 63q-22 12 -41 16q-12 20 -20 29v12q0 22 66 45q132 45 212.5 133t80.5 191q0 20 -3 40l-80 478q5 29 16 124q5 44 13 65q13 34 40 49q7 3 102 29.5t107 28.5q75 12 123 12 q13 0 65 -11q53 -11 56 -13q5 -8 10 -31z" />
<glyph unicode="|" horiz-adv-x="514" d="M189 1870l2 -2q13 -17 40 -44q40 -86 40 -172v-5l-19 -1821q-2 -86 -15 -136l-5 -1q-17 5 -27 5h-3q-15 10 -42 32h-2q-15 111 -15 120l8 1352q3 90 11 361q0 46 3 178q1 47 24 133z" />
<glyph unicode="}" horiz-adv-x="823" d="M-30 1776l4 -5l13 -10l273 9h5q69 0 102 -46q9 -18 51 -109l-7 -70q-17 16 -17 38l-1 7l24 -71q-10 -61 -39 -191q-17 -33 -38 -106q-34 -171 -34 -227q0 -15 13 -89q13 -73 18 -80q15 -27 57 -61q53 -43 67 -59q-55 -96 -96 -133l-30 -23q-16 -19 -16 -52 q0 -133 35 -215q10 -55 42 -166l68 -161q39 -90 39 -169q0 -127 -84 -175q-18 -11 -100 -26q-84 -17 -115 -17q-5 0 -36 2.5t-36 2.5t-18 -2q-17 -14 -44 -26l-2 -15q6 -14 11 -30q17 -10 49 -25q54 -21 100 -21q68 0 247 57q15 17 65 49q56 38 77 61q40 48 40 126 q0 64 -23 173q-17 79 -89 226q-26 92 -57 180q-23 63 -33 138q55 113 151 123q6 0 69 8l33 -4l-1 -11q0 -11 4 -11q6 0 14 16l4 4l2 4q23 12 41 16q12 20 19 30v12q0 21 -65 44q-133 44 -212 133q-81 88 -81 192q0 20 3 39l80 479q0 62 -25 176q-9 42 -45 61q-6 4 -101 31 t-108 29q-68 11 -123 11q-13 0 -65 -10.5t-55 -12.5q-5 -11 -11 -32z" />
<glyph unicode="~" horiz-adv-x="1821" d="M1785 1675q-84 -58 -187 -138q-146 -115 -191 -140q-108 -61 -224 -61q-39 0 -177 60q-140 61 -154 86q-86 142 -121 169q-59 46 -204 46q-111 0 -210 -71q-57 -40 -139 -129q-66 -71 -93 -71q-59 0 -59 53q0 101 187 246q179 138 289 138q163 0 273 -88l213 -205 q27 -27 100 -51q86 -27 128 -27q82 0 290 134l209 135h-1q0 -1 71 -14v-72z" />
<glyph unicode="&#xa2;" horiz-adv-x="982" d="M940 481q-308 -79 -308 -81q-5 0 -21.5 7t-22.5 7q-63 0 -81 -35q-75 -150 -85 -394q-2 -36 -39 -73q-59 28 -59 148q0 36 23 146q26 126 30 156q-84 50 -228 170q-11 12 -35 105l-20 41q-15 31 -15 44q0 48 107 161q101 105 155 129q104 19 232 48q48 17 136 264 q82 234 161 234q59 0 59 -65q0 -13 -26 -44q-30 -32 -35 -43q-63 -116 -77 -231q-46 -45 -46 -110q0 -54 61 -79q74 -32 83 -37v-84q-65 0 -194 -6q-53 -61 -113 -282q68 -35 147 -35q78 0 155 38l56 -55v-44zM542 860l-85 16q-107 -68 -126 -83q-84 -64 -84 -110v1 q2 0 17 -61q6 -4 76 -48q56 -33 74 -33q14 0 128 318z" />
<glyph unicode="&#xa3;" horiz-adv-x="1798" d="M1743 136q0 -78 -187 -132q-148 -43 -256 -43q-109 0 -186 59q-41 31 -136 145q-76 90 -140 143q-68 -88 -169 -201q-169 -133 -281 -133q-134 0 -238 91q-103 91 -103 211q0 5 -2 31q-1 25 -1 30q0 54 59 136q24 34 141 95l103 57q62 32 114 32h35h26q16 1 20 1h83 q26 0 85 -21q29 -10 59 -22l76 278q-15 20 -41 20l-146 1l-147 1q-11 50 -13 50v-1q0 36 42.5 69.5t85.5 33.5q11 0 79.5 -13t80.5 -13q64 0 79 59q9 77 21 153q9 59 56 246q4 33 22 92q24 41 96 74q72 31 137 31q35 0 182 -69q27 -12 69 -103q38 -85 38 -123q0 -33 -19 -62 q-20 -28 -45 -28q-50 0 -60 74q-13 99 -20 108q-16 23 -91 44q-65 19 -105 19q-91 0 -134 -206q-28 -133 -28 -286q45 -15 132 -23q85 -8 131 -18q95 -22 251 -101q-5 -19 -13 -59q-34 -7 -74 -7q-28 0 -187 30t-186 30q-22 0 -44 -2q-15 -24 -50 -187.5t-35 -205.5 q0 -37 153 -238q67 -87 129 -125q69 -42 173 -42q193 0 350 88q7 -15 15 -30q14 -29 14 -38zM716 430q0 35 -59 68q-52 28 -89 28q-180 0 -313 -113q-92 -78 -92 -117q0 -64 60 -116t132 -52q46 0 60 4q64 14 180 123q121 113 121 175z" />
<glyph unicode="&#xa4;" horiz-adv-x="1514" d="M1644 1405q-65 -44 -115 -44q-8 0 -51 6q-45 5 -53 5q-222 0 -472.5 -119.5t-371.5 -284.5q97 -15 211 -15q33 0 151 3l152 2q119 0 279 -5q20 -11 55 -37v-65q-46 -4 -105 -4q-27 0 -116 3l-115 2q-88 0 -392 -24l-152 -12h-38q-44 -4 -77 -78q34 -20 75 -20q10 0 59 7 q50 7 58 7q12 0 79 -13.5t78 -13.5q2 0 23 6q21 7 22 7q17 0 41 -22q277 -3 580 -44l13 -60q-84 -15 -236 -15l-25 -13q-26 -13 -38 -13q-8 0 -34 13q-28 13 -32 13l-481 13q0 -1 -210 -17q-34 -27 -34 -86q0 -111 52 -169q166 -183 546 -196q15 0 106 -11q87 -10 114 -10 h98l97 -2v-86q-242 -41 -261 -41q-313 0 -544 81q-327 115 -346 362q-1 4 -8 152q-27 14 -176 50v70q29 46 78 46q12 0 66 -14t63 -14q43 0 43 73v16q-87 19 -258 64v97q55 29 78 29q15 0 107 -13q93 -13 111 -13q22 0 41 2l125 188q77 112 154 157q270 156 607 174 q6 0 53 11.5t56 11.5q163 0 239 -46q8 -18 31 -51z" />
<glyph unicode="&#x20ac;" horiz-adv-x="1514" d="M1644 1405q-65 -44 -115 -44q-8 0 -51 6q-45 5 -53 5q-222 0 -472.5 -119.5t-371.5 -284.5q97 -15 211 -15q33 0 151 3l152 2q119 0 279 -5q20 -11 55 -37v-65q-46 -4 -105 -4q-27 0 -116 3l-115 2q-88 0 -392 -24l-152 -12h-38q-44 -4 -77 -78q34 -20 75 -20q10 0 59 7 q50 7 58 7q12 0 79 -13.5t78 -13.5q2 0 23 6q21 7 22 7q17 0 41 -22q277 -3 580 -44l13 -60q-84 -15 -236 -15l-25 -13q-26 -13 -38 -13q-8 0 -34 13q-28 13 -32 13l-481 13q0 -1 -210 -17q-34 -27 -34 -86q0 -111 52 -169q166 -183 546 -196q15 0 106 -11q87 -10 114 -10 h98l97 -2v-86q-242 -41 -261 -41q-313 0 -544 81q-327 115 -346 362q-1 4 -8 152q-27 14 -176 50v70q29 46 78 46q12 0 66 -14t63 -14q43 0 43 73v16q-87 19 -258 64v97q55 29 78 29q15 0 107 -13q93 -13 111 -13q22 0 41 2l125 188q77 112 154 157q270 156 607 174 q6 0 53 11.5t56 11.5q163 0 239 -46q8 -18 31 -51z" />
<glyph unicode="&#xa5;" horiz-adv-x="1385" d="M1427 1488l-387 -443q-306 -349 -306 -432q0 -46 10.5 -58.5t52.5 -12.5q29 0 131 2l130 2q136 0 215 -6l-5 -34q-58 -54 -129 -54q-7 0 -23 6.5t-23 6.5q-13 0 -121 -18h1q0 2 -134 5h-6q-122 0 -137 -132q15 -21 44 -21q7 0 34.5 10t30.5 10q102 13 294 13h88l84 -1 v-83q-27 6 -55 11q-12 0 -50 -17l-39 -18q-90 0 -231 -20q-92 -14 -126 -26q-66 -21 -85 -69q-20 -100 -22 -104q-20 -55 -77 -80q-44 35 -44 88q0 6 3 36q4 29 4 34q0 47 -84 47q-18 0 -120 -19q-103 -18 -121 -18h-131q-12 54 -14 54q-1 0 -1 -4q0 76 207 98 q191 19 204 22q48 7 58 28l20 76q-16 21 -51 21q-111 0 -198 -17q-12 -2 -96 -29q-60 -19 -93 -19q-34 0 -76 41v62q48 28 166 60q117 30 174 30q6 0 26 -5q18 -7 26 -7q23 0 78 21.5t70 36.5l-451 783q16 71 71 71q48 0 217 -272q181 -294 245 -332q83 83 274 306l199 242 q156 185 210 185q15 0 69 -57z" />
<glyph unicode="&#xa9;" horiz-adv-x="1466" d="M1408 770q0 -266 -232 -436q-212 -156 -488 -156q-137 0 -300 65q-178 72 -248 174q-21 30 -63 128q-44 103 -44 128q0 10 9 33q10 24 13 32q0 22 4 83q11 147 81 268q151 265 425 318q93 18 251 18q0 -1 371 -95q221 -177 221 -560zM1280 751q0 173 -30 259 q-18 50 -87 121q-74 76 -121 76q-5 0 -35 -6q-29 -7 -35 -7q-18 0 -146.5 32t-142.5 32q-12 0 -45 -11t-34 -11q-99 -17 -143 -40q-114 -58 -188 -189q-73 -132 -73 -275q0 -80 39 -174q44 -107 106 -131q241 -93 338 -93q56 0 210 34q154 35 203 59q56 28 120 142t64 182z M1049 668q0 -77 -117 -152q-106 -66 -185 -66q-54 0 -220 41l-76 100q-59 77 -59 96q0 172 58 235q140 156 297 156q79 0 132.5 -36t53.5 -92q0 -26 -31 -52q-11 5 -65 23q-46 16 -64 16q-54 0 -146 -65.5t-92 -108.5q0 -159 224 -159q54 0 127 53q87 63 117 75 q46 -15 46 -64z" />
<glyph unicode="&#xad;" d="M709 412q0 -57 -52 -57q-14 0 -90 12t-90 12q-127 0 -219 -15q-98 -17 -123 -23q-8 -1 -8 -2t3 -1q-18 0 -44 31t-26 52q0 54 58 66q101 20 261 20q60 0 117 4q5 1 61 18q55 18 68 18q30 0 58 -54q26 -49 26 -81z" />
<glyph unicode="&#xae;" horiz-adv-x="1567" d="M1504 783q0 -146 -44 -292q-50 -169 -129 -259q-52 -59 -177.5 -108t-221.5 -49q-26 0 -179 -12.5t-180 -12.5q-16 0 -46 14q-35 17 -46 19q-45 12 -141 49q-124 68 -205.5 203t-81.5 274q0 8 8 57t8 58q0 8 -3 51.5t-3 51.5q0 65 60 194q53 115 101 178q105 141 257 207 q33 15 206 34q28 3 101 20q67 17 99 17q180 0 330.5 -120t233.5 -328q53 -133 53 -246zM1363 744q0 106 -53 251q-58 157 -129 217q-143 122 -262 122q-21 0 -54 -26q-40 -32 -51 -35q-122 -40 -216 -40q-5 0 -25 19t-26 19q-37 0 -125 -81q-72 -66 -108 -115 q-56 -73 -90 -230q-30 -134 -30 -249q0 -40 52 -141q46 -93 77 -130q38 -44 158 -75q8 -2 77 -26q60 -20 72 -20q20 0 122 16q151 25 289 54q-34 17 -233 105q-144 63 -225 127v-85q0 -89 -69 -89q-29 0 -62 23q-4 44 -4 384q0 95 -3 114t-24 51q-22 30 -22 45q0 70 182 142 q159 64 248 64q95 0 173 -78t78 -173q0 -88 -140 -236q-56 -46 -129 -126q192 -77 392 -197q160 122 160 399zM951 930q0 30 -47 63t-88 33q-40 0 -138 -39t-124 -66q0 -113 29 -383q95 123 159 150q7 1 39 8q170 171 170 234z" />
<glyph unicode="&#xb4;" horiz-adv-x="870" d="M847 1801q0 -5 -115 -71q-40 -23 -178 -96l-190 -102l-48 -37q-166 -125 -228 -125q-58 0 -58 40q0 46 56 74l169 83q57 44 179 121l126 60l74 50l77 42q16 2 77 26q59 -36 59 -65z" />
<glyph unicode="&#x2000;" horiz-adv-x="944" />
<glyph unicode="&#x2001;" horiz-adv-x="1888" />
<glyph unicode="&#x2002;" horiz-adv-x="944" />
<glyph unicode="&#x2003;" horiz-adv-x="1888" />
<glyph unicode="&#x2004;" horiz-adv-x="629" />
<glyph unicode="&#x2005;" horiz-adv-x="472" />
<glyph unicode="&#x2006;" horiz-adv-x="314" />
<glyph unicode="&#x2007;" horiz-adv-x="314" />
<glyph unicode="&#x2008;" horiz-adv-x="236" />
<glyph unicode="&#x2009;" horiz-adv-x="377" />
<glyph unicode="&#x200a;" horiz-adv-x="104" />
<glyph unicode="&#x2010;" d="M709 412q0 -57 -52 -57q-14 0 -90 12t-90 12q-127 0 -219 -15q-98 -17 -123 -23q-8 -1 -8 -2t3 -1q-18 0 -44 31t-26 52q0 54 58 66q101 20 261 20q60 0 117 4q5 1 61 18q55 18 68 18q30 0 58 -54q26 -49 26 -81z" />
<glyph unicode="&#x2011;" d="M709 412q0 -57 -52 -57q-14 0 -90 12t-90 12q-127 0 -219 -15q-98 -17 -123 -23q-8 -1 -8 -2t3 -1q-18 0 -44 31t-26 52q0 54 58 66q101 20 261 20q60 0 117 4q5 1 61 18q55 18 68 18q30 0 58 -54q26 -49 26 -81z" />
<glyph unicode="&#x2013;" horiz-adv-x="1275" d="M1192 396q0 -58 -51 -58q-13 0 -89 12q-77 13 -91 13q-288 0 -566 -51q-130 -23 -230 -23q-18 0 -44.5 31.5t-26.5 52.5q0 49 57 64q125 14 242 22l414 22q79 5 174 15q5 0 61 18q54 17 67 17q28 0 55.5 -48t27.5 -87z" />
<glyph unicode="&#x2014;" horiz-adv-x="2829" d="M2691 470q0 -43 -23.5 -76.5t-54.5 -33.5q-5 0 -43 12t-47 12q-19 0 -143 -24q-126 -25 -146 -25q-11 0 -77 12.5t-77 12.5q-44 0 -302 6q-257 7 -303 7q-15 0 -114 -13t-117 -13q-11 0 -79.5 18.5t-80.5 18.5t-86 -8q-74 -7 -87 -7q-33 0 -148 1l-148 2q-101 0 -152 -4 q-26 -1 -129 -18q-97 -15 -123 -15q-33 0 -61.5 26.5t-28.5 57.5q0 83 175 83h1037q14 0 91 -2t90 -2q7 0 39 8t39 8q13 0 76 -13q55 -12 74 -12h5l584 51q7 0 35 -12q29 -14 36 -14q88 0 194 64q7 -24 53 -40q42 -14 42 -68z" />
<glyph unicode="&#x2018;" horiz-adv-x="419" d="M410 1552q-146 -84 -190 -154q-8 -14 -53 -120q-38 -89 -51 -89q-12 0 -43 14q0 3 -8 32.5t-8 37.5q0 25 28 154q11 51 117.5 138t157.5 87q7 0 27.5 -7.5t22.5 -7.5v-85z" />
<glyph unicode="&#x2019;" horiz-adv-x="450" d="M393 1515q0 -99 -76 -191q-70 -85 -123 -104q-30 -2 -88 -17q-15 21 -38 66q59 45 84 75l70 62q36 38 37 86v3q0 34 -17 86q-23 64 -26 89l41 16q136 -47 136 -171z" />
<glyph unicode="&#x201c;" d="M732 1611q-146 -85 -190 -155q-5 -8 -52 -121q-37 -88 -53 -88q-8 0 -42 15q-2 8 -8 34q-7 28 -7 35q0 26 28 155q11 50 117 137q107 87 157 87q9 0 28 -7l22 -8v-84zM382 1629l-141 -68q-52 -38 -52 -134q0 -60 15 -84q5 -11 62 -63q-3 -5 -8 -36q-4 -22 -21 -22 q-178 0 -178 161v110v-1q7 74 147 178q78 59 113 59q64 0 64 -77q0 -10 -1 -23z" />
<glyph unicode="&#x201d;" horiz-adv-x="670" d="M637 1527q0 -122 -185 -301q-12 5 -23 5q-5 0 -12 -2l-23 68q13 39 72 130q38 58 38 120q0 7 -1 14q-2 10 -19 58q-11 32 -11 56q0 40 34 56q130 -30 130 -204zM345 1616q13 -36 13 -73q0 -99 -77 -191q-68 -84 -123 -105q-30 -3 -88 -14q-13 20 -37 64q59 45 85 75 l69 62q36 38 37 87v3q0 39 -16 87q-25 71 -27 88l41 15q100 -34 123 -98z" />
<glyph unicode="&#x2022;" d="M646 658q0 -67 -111 -133q-101 -60 -172 -60q-59 0 -161 62q-109 65 -109 118q0 72 139 167q131 90 208 90q84 0 145 -73t61 -171z" />
<glyph unicode="&#x2026;" horiz-adv-x="1508" d="M1423 127v-6q0 -91 -172 -91q-48 0 -104 97l19 114q9 1 56 21q40 17 58 17q103 0 136 -24zM924 169q0 -59 -49 -107q-48 -48 -107 -48q-29 0 -64 43.5t-35 78.5q0 60 45.5 102.5t111.5 42.5q33 0 65 -38q33 -37 33 -74zM427 132q0 -34 -77 -93q-35 -27 -109 -27 q-58 0 -81 12q-41 23 -57 64q-11 26 -11 49q0 26 13 50q17 32 60 54q35 5 76 18q58 18 76 18q110 0 110 -145z" />
<glyph unicode="&#x202f;" horiz-adv-x="377" />
<glyph unicode="&#x205f;" horiz-adv-x="472" />
<glyph unicode="&#x2122;" horiz-adv-x="1394" d="M1377 1194q0 -24 -26 -60t-45 -36q-18 0 -36 17q-23 22 -29 24q-34 34 -40 77v88q0 62 -37 102l-144 -120q-119 -98 -138 -98q-4 2 -42 17q-52 88 -188 162q-8 -16 -13.5 -99.5t-9.5 -92.5q-9 -20 -25 -38h-73q-14 23 -44.5 173t-44.5 174q-134 -9 -134 -104 q0 -12 12 -77t12 -77q0 -26 -27 -76q-32 -62 -39 -77q-88 71 -88 143q0 11 10 72q11 60 11 71q0 74 -39 96q-29 16 -107 16h-9l-16 17v71q48 54 199 54q4 0 28 -7q24 -6 30 -6q15 0 124.5 32t125.5 32q28 0 200 -129q161 -120 161 -128q0 -1 -1 -1q18 0 155 110l166 135 q41 -23 77 -93q22 -41 53 -177t31 -187z" />
</font>
</defs>
</svg>
